<?xml version="1.0" encoding="UTF-8" standalone="no"?>
<!-- Created with Inkscape (http://www.inkscape.org/) -->

<svg
   version="1.1"
   id="svg50357"
   xml:space="preserve"
   width="332.60611"
   height="274.81561"
   viewBox="0 0 332.60611 274.81561"
   sodipodi:docname="paper2DataRate.svg"
   inkscape:version="1.1.2 (0a00cf5339, 2022-02-04)"
   xmlns:inkscape="http://www.inkscape.org/namespaces/inkscape"
   xmlns:sodipodi="http://sodipodi.sourceforge.net/DTD/sodipodi-0.dtd"
   xmlns="http://www.w3.org/2000/svg"
   xmlns:svg="http://www.w3.org/2000/svg"><defs
     id="defs50361"><rect
       x="285.98288"
       y="423.11203"
       width="242.51799"
       height="70.393372"
       id="rect59373" /><clipPath
       clipPathUnits="userSpaceOnUse"
       id="clipPath50653"><path
         d="M 0,0 H 662.40796 V 568.80634 H 0 Z"
         id="path50651" /></clipPath></defs><sodipodi:namedview
     id="namedview50359"
     pagecolor="#ffffff"
     bordercolor="#666666"
     borderopacity="1.0"
     inkscape:pageshadow="2"
     inkscape:pageopacity="0.0"
     inkscape:pagecheckerboard="0"
     showgrid="false"
     fit-margin-top="0"
     fit-margin-left="0"
     fit-margin-right="0"
     fit-margin-bottom="0"
     inkscape:zoom="3.3068182"
     inkscape:cx="174.79038"
     inkscape:cy="164.50859"
     inkscape:window-width="3440"
     inkscape:window-height="1371"
     inkscape:window-x="1080"
     inkscape:window-y="32"
     inkscape:window-maximized="1"
     inkscape:current-layer="g50363" /><g
     id="g50363"
     inkscape:groupmode="layer"
     inkscape:label="paper2"
     transform="matrix(1.3333333,0,0,-1.3333333,-67.103335,988.11071)"><path
       d="M 77.55724,556.19366 H 287.87177 V 736.78967 H 77.55724 Z"
       style="fill:#ffffff;fill-opacity:1;fill-rule:nonzero;stroke:none;stroke-width:0.3175"
       id="path50405" /><path
       d="m 77.55724,556.19366 v 180.59601 m 42.0629,-180.59601 v 180.59601 m 42.06291,-180.59601 v 180.59601 m 42.06291,-180.59601 v 180.59601 m 42.0629,-180.59601 v 180.59601 m 42.06291,-180.59601 v 180.59601"
       style="fill:none;stroke:#bfbfbf;stroke-width:0.126524;stroke-linecap:butt;stroke-linejoin:miter;stroke-miterlimit:10;stroke-dasharray:none;stroke-opacity:1"
       id="path50411" /><path
       d="M 77.55724,556.19366 H 287.87177 M 77.55724,586.293 H 287.87177 M 77.55724,616.39233 H 287.87177 M 77.55724,646.49167 H 287.87177 M 77.55724,676.591 H 287.87177 M 77.55724,706.69034 H 287.87177 M 77.55724,736.78967 h 210.31453"
       style="fill:none;stroke:#bfbfbf;stroke-width:0.126524;stroke-linecap:butt;stroke-linejoin:miter;stroke-miterlimit:10;stroke-dasharray:none;stroke-opacity:1"
       id="path50417" /><path
       d="m 77.55724,556.19366 v 1.34994 m 42.0629,-1.34994 v 1.34994 m 42.06291,-1.34994 v 1.34994 m 42.06291,-1.34994 v 1.34994 m 42.0629,-1.34994 v 1.34994 m 42.06291,-1.34994 v 1.34994 M 77.55724,736.78967 v -1.34995 m 42.0629,1.34995 v -1.34995 m 42.06291,1.34995 v -1.34995 m 42.06291,1.34995 v -1.34995 m 42.0629,1.34995 v -1.34995 m 42.06291,1.34995 v -1.34995"
       style="fill:none;stroke:#808080;stroke-width:0.0632619;stroke-linecap:butt;stroke-linejoin:miter;stroke-miterlimit:10;stroke-dasharray:none;stroke-opacity:1"
       id="path50423" /><path
       d="m 77.55724,556.19366 h 1.350242 M 77.55724,586.293 h 1.350242 m -1.350242,30.09933 h 1.350242 m -1.350242,30.09934 h 1.350242 M 77.55724,676.591 h 1.350242 m -1.350242,30.09934 h 1.350242 m -1.350242,30.09933 h 1.350242 M 287.87177,556.19366 h -1.35025 m 1.35025,30.09934 h -1.35025 m 1.35025,30.09933 h -1.35025 m 1.35025,30.09934 h -1.35025 m 1.35025,30.09933 h -1.35025 m 1.35025,30.09934 h -1.35025 m 1.35025,30.09933 h -1.35025"
       style="fill:none;stroke:#808080;stroke-width:0.0632619;stroke-linecap:butt;stroke-linejoin:miter;stroke-miterlimit:10;stroke-dasharray:none;stroke-opacity:1"
       id="path50429" /><path
       d="M 77.55724,556.19366 V 736.78967 H 287.87177 V 556.19366 Z"
       style="fill:none;stroke:#000000;stroke-width:0.126524;stroke-linecap:butt;stroke-linejoin:miter;stroke-miterlimit:10;stroke-dasharray:none;stroke-opacity:1"
       id="path50431" /><text
       transform="scale(1,-1)"
       style="font-variant:normal;font-weight:normal;font-size:10.2309px;font-family:CMR17;-inkscape-font-specification:CMR17;writing-mode:lr-tb;fill:#000000;fill-opacity:1;fill-rule:nonzero;stroke:none;stroke-width:0.41275"
       id="text50443"
       x="75.211227"
       y="-548.146"><tspan
         x="75.211227"
         y="-548.146"
         id="tspan50441"
         style="stroke-width:0.41275">0</tspan></text><text
       transform="scale(1,-1)"
       style="font-variant:normal;font-weight:normal;font-size:10.2309px;font-family:CMR17;-inkscape-font-specification:CMR17;writing-mode:lr-tb;fill:#000000;fill-opacity:1;fill-rule:nonzero;stroke:none;stroke-width:0.41275"
       id="text50459"
       x="112.58162"
       y="-548.146"><tspan
         x="112.58162 117.2735 121.96538"
         y="-548.146"
         sodipodi:role="line"
         id="tspan50457"
         style="stroke-width:0.41275">200</tspan></text><text
       transform="scale(1,-1)"
       style="font-variant:normal;font-weight:normal;font-size:10.2309px;font-family:CMR17;-inkscape-font-specification:CMR17;writing-mode:lr-tb;fill:#000000;fill-opacity:1;fill-rule:nonzero;stroke:none;stroke-width:0.41275"
       id="text50475"
       x="154.64401"
       y="-548.146"><tspan
         x="154.64401 159.33591 164.02779"
         y="-548.146"
         sodipodi:role="line"
         id="tspan50473"
         style="stroke-width:0.41275">400</tspan></text><text
       transform="scale(1,-1)"
       style="font-variant:normal;font-weight:normal;font-size:10.2309px;font-family:CMR17;-inkscape-font-specification:CMR17;writing-mode:lr-tb;fill:#000000;fill-opacity:1;fill-rule:nonzero;stroke:none;stroke-width:0.41275"
       id="text50491"
       x="196.7061"
       y="-548.146"><tspan
         x="196.7061 201.39798 206.08986"
         y="-548.146"
         sodipodi:role="line"
         id="tspan50489"
         style="stroke-width:0.41275">600</tspan></text><text
       transform="scale(1,-1)"
       style="font-variant:normal;font-weight:normal;font-size:10.2309px;font-family:CMR17;-inkscape-font-specification:CMR17;writing-mode:lr-tb;fill:#000000;fill-opacity:1;fill-rule:nonzero;stroke:none;stroke-width:0.41275"
       id="text50507"
       x="238.76849"
       y="-548.146"><tspan
         x="238.76849 243.46037 248.15225"
         y="-548.146"
         sodipodi:role="line"
         id="tspan50505"
         style="stroke-width:0.41275">800</tspan></text><text
       transform="scale(1,-1)"
       style="font-variant:normal;font-weight:normal;font-size:10.2309px;font-family:CMR17;-inkscape-font-specification:CMR17;writing-mode:lr-tb;fill:#000000;fill-opacity:1;fill-rule:nonzero;stroke:none;stroke-width:0.41275"
       id="text50523"
       x="277.0936"
       y="-548.146"><tspan
         x="277.0936"
         y="-548.146"
         id="tspan50521"
         style="stroke-width:0.41275">1</tspan></text><text
       transform="scale(1,-1)"
       style="font-variant:normal;font-weight:normal;font-size:10.2309px;font-family:CMMI12;-inkscape-font-specification:CMMI12;writing-mode:lr-tb;fill:#000000;fill-opacity:1;fill-rule:nonzero;stroke:none;stroke-width:0.41275"
       id="text50527"
       x="281.78574"
       y="-548.146"><tspan
         x="281.78574"
         y="-548.146"
         id="tspan50525"
         style="stroke-width:0.41275">,</tspan></text><text
       transform="scale(1,-1)"
       style="font-variant:normal;font-weight:normal;font-size:10.2309px;font-family:CMR17;-inkscape-font-specification:CMR17;writing-mode:lr-tb;fill:#000000;fill-opacity:1;fill-rule:nonzero;stroke:none;stroke-width:0.41275"
       id="text50531"
       x="284.56851"
       y="-548.146"><tspan
         x="284.56851 289.26038 293.95227"
         y="-548.146"
         sodipodi:role="line"
         id="tspan50529"
         style="stroke-width:0.41275">000</tspan></text><text
       transform="scale(1,-1)"
       style="font-variant:normal;font-weight:normal;font-size:10.2309px;font-family:CMR17;-inkscape-font-specification:CMR17;writing-mode:lr-tb;fill:#000000;fill-opacity:1;fill-rule:nonzero;stroke:none;stroke-width:0.41275"
       id="text50547"
       x="71.412346"
       y="-552.89612"><tspan
         x="71.412346"
         y="-552.89612"
         id="tspan50545"
         style="stroke-width:0.41275">0</tspan></text><text
       transform="scale(1,-1)"
       style="font-variant:normal;font-weight:normal;font-size:10.2309px;font-family:CMR17;-inkscape-font-specification:CMR17;writing-mode:lr-tb;fill:#000000;fill-opacity:1;fill-rule:nonzero;stroke:none;stroke-width:0.41275"
       id="text50563"
       x="62.028316"
       y="-582.99512"><tspan
         x="62.028316 66.720192 71.412071"
         y="-582.99512"
         sodipodi:role="line"
         id="tspan50561"
         style="stroke-width:0.41275">100</tspan></text><text
       transform="scale(1,-1)"
       style="font-variant:normal;font-weight:normal;font-size:10.2309px;font-family:CMR17;-inkscape-font-specification:CMR17;writing-mode:lr-tb;fill:#000000;fill-opacity:1;fill-rule:nonzero;stroke:none;stroke-width:0.41275"
       id="text50579"
       x="62.028316"
       y="-613.09412"><tspan
         x="62.028316 66.720192 71.412071"
         y="-613.09412"
         sodipodi:role="line"
         id="tspan50577"
         style="stroke-width:0.41275">200</tspan></text><text
       transform="scale(1,-1)"
       style="font-variant:normal;font-weight:normal;font-size:10.2309px;font-family:CMR17;-inkscape-font-specification:CMR17;writing-mode:lr-tb;fill:#000000;fill-opacity:1;fill-rule:nonzero;stroke:none;stroke-width:0.41275"
       id="text50595"
       x="62.028316"
       y="-643.19312"><tspan
         x="62.028316 66.720192 71.412071"
         y="-643.19312"
         sodipodi:role="line"
         id="tspan50593"
         style="stroke-width:0.41275">300</tspan></text><text
       transform="scale(1,-1)"
       style="font-variant:normal;font-weight:normal;font-size:10.2309px;font-family:CMR17;-inkscape-font-specification:CMR17;writing-mode:lr-tb;fill:#000000;fill-opacity:1;fill-rule:nonzero;stroke:none;stroke-width:0.41275"
       id="text50611"
       x="62.028316"
       y="-673.29211"><tspan
         x="62.028316 66.720192 71.412071"
         y="-673.29211"
         sodipodi:role="line"
         id="tspan50609"
         style="stroke-width:0.41275">400</tspan></text><text
       transform="scale(1,-1)"
       style="font-variant:normal;font-weight:normal;font-size:10.2309px;font-family:CMR17;-inkscape-font-specification:CMR17;writing-mode:lr-tb;fill:#000000;fill-opacity:1;fill-rule:nonzero;stroke:none;stroke-width:0.41275"
       id="text50627"
       x="62.028316"
       y="-703.39081"><tspan
         x="62.028316 66.720192 71.412071"
         y="-703.39081"
         sodipodi:role="line"
         id="tspan50625"
         style="stroke-width:0.41275">500</tspan></text><text
       transform="scale(1,-1)"
       style="font-variant:normal;font-weight:normal;font-size:10.2309px;font-family:CMR17;-inkscape-font-specification:CMR17;writing-mode:lr-tb;fill:#000000;fill-opacity:1;fill-rule:nonzero;stroke:none;stroke-width:0.41275"
       id="text50643"
       x="62.028316"
       y="-733.48981"><tspan
         x="62.028316 66.720192 71.412071"
         y="-733.48981"
         sodipodi:role="line"
         id="tspan50641"
         style="stroke-width:0.41275">600</tspan></text><path
       d="m 77.55724,577.50957 10.515724,127.31777 10.515724,17.90973 10.515732,-0.39313 10.51572,-3.51439 10.51573,-4.98494 10.51573,-5.50509 10.51572,-5.66374 10.51573,-4.28787 10.51572,-3.96984 10.51573,-3.75168 10.51573,-4.71303 10.51573,-3.93293 10.51572,-3.17126 10.51573,-1.70831 10.51573,-4.14557 10.51572,-2.94257 10.51573,-2.70736 10.51572,-1.99582 10.51573,-2.22038 10.51573,-2.19874"
       style="fill:none;stroke:#0000ff;stroke-width:1.10711;stroke-linecap:butt;stroke-linejoin:miter;stroke-miterlimit:10;stroke-dasharray:none;stroke-opacity:1"
       id="path50657" /><path
       d="m 77.55724,590.34364 10.515724,82.47833 10.515724,15.50169 10.515732,2.61842 10.51572,-0.4153 10.51573,-1.81724 10.51573,-3.16821 10.51572,-2.63551 10.51573,-2.62905 10.51572,-4.35917 10.51573,-2.43231 10.51573,-1.74069 10.51573,-2.59032 10.51572,-3.63911 10.51573,-1.62619 10.51573,-2.27682 10.51572,-1.97347 10.51573,-1.38662 10.51572,-1.90916 10.51573,-2.57761 10.51573,-1.5524"
       style="fill:none;stroke:#ff0000;stroke-width:1.10711;stroke-linecap:butt;stroke-linejoin:miter;stroke-miterlimit:10;stroke-dasharray:none;stroke-opacity:1"
       id="path50661" /><path
       d="m 77.55724,592.06598 10.515724,49.6571 10.515724,14.22974 10.515732,4.42375 10.51572,0.16616 10.51573,-0.34516 10.51573,-0.55038 10.51572,-0.79802 10.51573,-1.83678 10.51572,-1.80355 10.51573,-2.50301 10.51573,-0.35302 10.51573,-2.38114 10.51572,-1.52194 10.51573,-1.50333 10.51573,-0.83746 10.51572,-2.01717 10.51573,-1.35191 10.51572,-0.93085 10.51573,-1.46878 10.51573,-1.784"
       style="fill:none;stroke:#77ac30;stroke-width:1.10711;stroke-linecap:butt;stroke-linejoin:miter;stroke-miterlimit:10;stroke-dasharray:none;stroke-opacity:1"
       id="path50665" /><path
       d="m 80.087782,577.50957 c 0,1.3976 -1.132948,2.53055 -2.530542,2.53055 -1.397594,0 -2.530542,-1.13295 -2.530542,-2.53055 0,-1.3976 1.132948,-2.53054 2.530542,-2.53054 1.397594,0 2.530542,1.13294 2.530542,2.53054 z"
       style="fill:none;stroke:#0000ff;stroke-width:1.10711;stroke-linecap:butt;stroke-linejoin:miter;stroke-miterlimit:10;stroke-dasharray:none;stroke-opacity:1"
       id="path50669" /><path
       d="m 101.11923,722.73707 c 0,1.3976 -1.132942,2.53054 -2.530542,2.53054 -1.397597,0 -2.530542,-1.13294 -2.530542,-2.53054 0,-1.3976 1.132945,-2.53054 2.530542,-2.53054 1.3976,0 2.530542,1.13294 2.530542,2.53054 z"
       style="fill:none;stroke:#0000ff;stroke-width:1.10711;stroke-linecap:butt;stroke-linejoin:miter;stroke-miterlimit:10;stroke-dasharray:none;stroke-opacity:1"
       id="path50671" /><path
       d="m 122.15069,718.82955 c 0,1.3976 -1.13295,2.53054 -2.53055,2.53054 -1.3976,0 -2.53054,-1.13294 -2.53054,-2.53054 0,-1.3976 1.13294,-2.53055 2.53054,-2.53055 1.3976,0 2.53055,1.13295 2.53055,2.53055 z"
       style="fill:none;stroke:#0000ff;stroke-width:1.10711;stroke-linecap:butt;stroke-linejoin:miter;stroke-miterlimit:10;stroke-dasharray:none;stroke-opacity:1"
       id="path50673" /><path
       d="m 143.18214,708.33952 c 0,1.3976 -1.13294,2.53055 -2.53054,2.53055 -1.3976,0 -2.53055,-1.13295 -2.53055,-2.53055 0,-1.3976 1.13295,-2.53054 2.53055,-2.53054 1.3976,0 2.53054,1.13294 2.53054,2.53054 z"
       style="fill:none;stroke:#0000ff;stroke-width:1.10711;stroke-linecap:butt;stroke-linejoin:miter;stroke-miterlimit:10;stroke-dasharray:none;stroke-opacity:1"
       id="path50675" /><path
       d="m 164.21359,698.38791 c 0,1.3976 -1.13294,2.53055 -2.53054,2.53055 -1.3976,0 -2.53054,-1.13295 -2.53054,-2.53055 0,-1.3976 1.13294,-2.53054 2.53054,-2.53054 1.3976,0 2.53054,1.13294 2.53054,2.53054 z"
       style="fill:none;stroke:#0000ff;stroke-width:1.10711;stroke-linecap:butt;stroke-linejoin:miter;stroke-miterlimit:10;stroke-dasharray:none;stroke-opacity:1"
       id="path50677" /><path
       d="m 185.24505,690.66639 c 0,1.39759 -1.13295,2.53054 -2.53055,2.53054 -1.39759,0 -2.53054,-1.13295 -2.53054,-2.53054 0,-1.3976 1.13295,-2.53055 2.53054,-2.53055 1.3976,0 2.53055,1.13295 2.53055,2.53055 z"
       style="fill:none;stroke:#0000ff;stroke-width:1.10711;stroke-linecap:butt;stroke-linejoin:miter;stroke-miterlimit:10;stroke-dasharray:none;stroke-opacity:1"
       id="path50679" /><path
       d="m 206.2765,682.02043 c 0,1.3976 -1.13295,2.53054 -2.53054,2.53054 -1.3976,0 -2.53055,-1.13294 -2.53055,-2.53054 0,-1.3976 1.13295,-2.53055 2.53055,-2.53055 1.39759,0 2.53054,1.13295 2.53054,2.53055 z"
       style="fill:none;stroke:#0000ff;stroke-width:1.10711;stroke-linecap:butt;stroke-linejoin:miter;stroke-miterlimit:10;stroke-dasharray:none;stroke-opacity:1"
       id="path50681" /><path
       d="m 227.30795,677.14086 c 0,1.3976 -1.13294,2.53054 -2.53054,2.53054 -1.3976,0 -2.53055,-1.13294 -2.53055,-2.53054 0,-1.3976 1.13295,-2.53055 2.53055,-2.53055 1.3976,0 2.53054,1.13295 2.53054,2.53055 z"
       style="fill:none;stroke:#0000ff;stroke-width:1.10711;stroke-linecap:butt;stroke-linejoin:miter;stroke-miterlimit:10;stroke-dasharray:none;stroke-opacity:1"
       id="path50683" /><path
       d="m 248.3394,670.05272 c 0,1.3976 -1.13294,2.53054 -2.53054,2.53054 -1.3976,0 -2.53054,-1.13294 -2.53054,-2.53054 0,-1.3976 1.13294,-2.53055 2.53054,-2.53055 1.3976,0 2.53054,1.13295 2.53054,2.53055 z"
       style="fill:none;stroke:#0000ff;stroke-width:1.10711;stroke-linecap:butt;stroke-linejoin:miter;stroke-miterlimit:10;stroke-dasharray:none;stroke-opacity:1"
       id="path50685" /><path
       d="m 269.37085,665.34954 c 0,1.3976 -1.13294,2.53054 -2.53054,2.53054 -1.3976,0 -2.53054,-1.13294 -2.53054,-2.53054 0,-1.3976 1.13294,-2.53054 2.53054,-2.53054 1.3976,0 2.53054,1.13294 2.53054,2.53054 z"
       style="fill:none;stroke:#0000ff;stroke-width:1.10711;stroke-linecap:butt;stroke-linejoin:miter;stroke-miterlimit:10;stroke-dasharray:none;stroke-opacity:1"
       id="path50687" /><path
       d="m 290.40231,660.93042 c 0,1.3976 -1.13295,2.53055 -2.53054,2.53055 -1.3976,0 -2.53055,-1.13295 -2.53055,-2.53055 0,-1.3976 1.13295,-2.53054 2.53055,-2.53054 1.39759,0 2.53054,1.13294 2.53054,2.53054 z"
       style="fill:none;stroke:#0000ff;stroke-width:1.10711;stroke-linecap:butt;stroke-linejoin:miter;stroke-miterlimit:10;stroke-dasharray:none;stroke-opacity:1"
       id="path50689" /><path
       d="m 77.55724,587.8131 v 5.06108 m 2.191518,-1.26527 -4.383036,-2.53054 m 4.383036,0 -4.383036,2.53054"
       style="fill:none;stroke:#ff0000;stroke-width:1.10711;stroke-linecap:butt;stroke-linejoin:miter;stroke-miterlimit:10;stroke-dasharray:none;stroke-opacity:1"
       id="path50693" /><path
       d="m 98.588688,685.79312 v 5.06108 m 2.191522,-1.26526 -4.383041,-2.53055 m 4.383041,0 -4.383041,2.53055"
       style="fill:none;stroke:#ff0000;stroke-width:1.10711;stroke-linecap:butt;stroke-linejoin:miter;stroke-miterlimit:10;stroke-dasharray:none;stroke-opacity:1"
       id="path50695" /><path
       d="m 119.62014,687.99624 v 5.06109 m 2.19153,-1.26527 -4.38305,-2.53055 m 4.38305,0 -4.38305,2.53055"
       style="fill:none;stroke:#ff0000;stroke-width:1.10711;stroke-linecap:butt;stroke-linejoin:miter;stroke-miterlimit:10;stroke-dasharray:none;stroke-opacity:1"
       id="path50697" /><path
       d="m 140.6516,683.01079 v 5.06109 m 2.19152,-1.26528 -4.38304,-2.53054 m 4.38304,0 -4.38304,2.53054"
       style="fill:none;stroke:#ff0000;stroke-width:1.10711;stroke-linecap:butt;stroke-linejoin:miter;stroke-miterlimit:10;stroke-dasharray:none;stroke-opacity:1"
       id="path50699" /><path
       d="m 161.68305,677.74622 v 5.06109 m 2.19152,-1.26528 -4.38304,-2.53054 m 4.38304,0 -4.38304,2.53054"
       style="fill:none;stroke:#ff0000;stroke-width:1.10711;stroke-linecap:butt;stroke-linejoin:miter;stroke-miterlimit:10;stroke-dasharray:none;stroke-opacity:1"
       id="path50701" /><path
       d="m 182.7145,670.95475 v 5.06109 m 2.19152,-1.26527 -4.38304,-2.53055 m 4.38304,0 -4.38304,2.53055"
       style="fill:none;stroke:#ff0000;stroke-width:1.10711;stroke-linecap:butt;stroke-linejoin:miter;stroke-miterlimit:10;stroke-dasharray:none;stroke-opacity:1"
       id="path50703" /><path
       d="m 203.74596,666.62374 v 5.06108 m 2.19152,-1.26527 -4.38305,-2.53054 m 4.38305,0 -4.38305,2.53054"
       style="fill:none;stroke:#ff0000;stroke-width:1.10711;stroke-linecap:butt;stroke-linejoin:miter;stroke-miterlimit:10;stroke-dasharray:none;stroke-opacity:1"
       id="path50705" /><path
       d="m 224.77741,661.35843 v 5.06109 m 2.19152,-1.26527 -4.38304,-2.53055 m 4.38304,0 -4.38304,2.53055"
       style="fill:none;stroke:#ff0000;stroke-width:1.10711;stroke-linecap:butt;stroke-linejoin:miter;stroke-miterlimit:10;stroke-dasharray:none;stroke-opacity:1"
       id="path50707" /><path
       d="m 245.80886,657.10815 v 5.06108 m 2.19152,-1.26527 -4.38304,-2.53054 m 4.38304,0 -4.38304,2.53054"
       style="fill:none;stroke:#ff0000;stroke-width:1.10711;stroke-linecap:butt;stroke-linejoin:miter;stroke-miterlimit:10;stroke-dasharray:none;stroke-opacity:1"
       id="path50709" /><path
       d="m 266.84031,653.81236 v 5.06109 m 2.19153,-1.26527 -4.38305,-2.53055 m 4.38305,0 -4.38305,2.53055"
       style="fill:none;stroke:#ff0000;stroke-width:1.10711;stroke-linecap:butt;stroke-linejoin:miter;stroke-miterlimit:10;stroke-dasharray:none;stroke-opacity:1"
       id="path50711" /><path
       d="m 287.87177,649.68235 v 5.06109 m 2.19152,-1.26527 -4.38305,-2.53055 m 4.38305,0 -4.38305,2.53055"
       style="fill:none;stroke:#ff0000;stroke-width:1.10711;stroke-linecap:butt;stroke-linejoin:miter;stroke-miterlimit:10;stroke-dasharray:none;stroke-opacity:1"
       id="path50713" /><path
       d="m 77.55724,594.59653 2.191518,-3.79581 h -4.383036 z"
       style="fill:none;stroke:#77ac30;stroke-width:1.10711;stroke-linecap:butt;stroke-linejoin:miter;stroke-miterlimit:10;stroke-dasharray:none;stroke-opacity:1"
       id="path50717" /><path
       d="m 98.588688,658.48336 2.191522,-3.79582 h -4.383041 z"
       style="fill:none;stroke:#77ac30;stroke-width:1.10711;stroke-linecap:butt;stroke-linejoin:miter;stroke-miterlimit:10;stroke-dasharray:none;stroke-opacity:1"
       id="path50719" /><path
       d="m 119.62014,663.07328 2.19153,-3.79582 h -4.38305 z"
       style="fill:none;stroke:#77ac30;stroke-width:1.10711;stroke-linecap:butt;stroke-linejoin:miter;stroke-miterlimit:10;stroke-dasharray:none;stroke-opacity:1"
       id="path50721" /><path
       d="m 140.6516,662.17773 2.19152,-3.79581 h -4.38304 z"
       style="fill:none;stroke:#77ac30;stroke-width:1.10711;stroke-linecap:butt;stroke-linejoin:miter;stroke-miterlimit:10;stroke-dasharray:none;stroke-opacity:1"
       id="path50723" /><path
       d="m 161.68305,659.54294 2.19152,-3.79582 h -4.38304 z"
       style="fill:none;stroke:#77ac30;stroke-width:1.10711;stroke-linecap:butt;stroke-linejoin:miter;stroke-miterlimit:10;stroke-dasharray:none;stroke-opacity:1"
       id="path50725" /><path
       d="m 182.7145,655.23638 2.19152,-3.79582 h -4.38304 z"
       style="fill:none;stroke:#77ac30;stroke-width:1.10711;stroke-linecap:butt;stroke-linejoin:miter;stroke-miterlimit:10;stroke-dasharray:none;stroke-opacity:1"
       id="path50727" /><path
       d="m 203.74596,652.50221 2.19152,-3.79581 h -4.38305 z"
       style="fill:none;stroke:#77ac30;stroke-width:1.10711;stroke-linecap:butt;stroke-linejoin:miter;stroke-miterlimit:10;stroke-dasharray:none;stroke-opacity:1"
       id="path50729" /><path
       d="m 224.77741,649.47694 2.19152,-3.79581 h -4.38304 z"
       style="fill:none;stroke:#77ac30;stroke-width:1.10711;stroke-linecap:butt;stroke-linejoin:miter;stroke-miterlimit:10;stroke-dasharray:none;stroke-opacity:1"
       id="path50731" /><path
       d="m 245.80886,646.62232 2.19152,-3.79582 h -4.38304 z"
       style="fill:none;stroke:#77ac30;stroke-width:1.10711;stroke-linecap:butt;stroke-linejoin:miter;stroke-miterlimit:10;stroke-dasharray:none;stroke-opacity:1"
       id="path50733" /><path
       d="m 266.84031,644.33955 2.19153,-3.79581 h -4.38305 z"
       style="fill:none;stroke:#77ac30;stroke-width:1.10711;stroke-linecap:butt;stroke-linejoin:miter;stroke-miterlimit:10;stroke-dasharray:none;stroke-opacity:1"
       id="path50735" /><path
       d="m 287.87177,641.08678 2.19152,-3.79582 h -4.38305 z"
       style="fill:none;stroke:#77ac30;stroke-width:1.10711;stroke-linecap:butt;stroke-linejoin:miter;stroke-miterlimit:10;stroke-dasharray:none;stroke-opacity:1"
       id="path50737" /><text
       transform="scale(1,-1)"
       style="font-variant:normal;font-size:9.86898px;font-family:'Nimbus Roman';-inkscape-font-specification:NimbusRomNo9L-Regu;writing-mode:lr-tb;fill:#262626;fill-opacity:1;fill-rule:nonzero;stroke:none;stroke-width:0.41275"
       id="text50749"
       x="134.39482"
       y="-536.60266"><tspan
         x="134.39482 141.52022 146.45471 154.13277 159.06726 163.44908 170.18959 175.12408 181.86459 185.70363 190.08545 192.82903 197.21085 199.95442 202.698 205.44157 208.18515 212.56699 219.86015"
         y="-536.60266"
         sodipodi:role="line"
         id="tspan50747"
         style="stroke-width:0.41275">NumberofsatellitesN</tspan></text><text
       transform="scale(1,-1)"
       style="font-variant:normal;font-size:6.90828px;font-family:'Nimbus Roman';-inkscape-font-specification:NimbusRomNo9L-Regu;writing-mode:lr-tb;fill:#262626;fill-opacity:1;fill-rule:nonzero;stroke:none;stroke-width:0.41275"
       id="text50753"
       x="226.98454"
       y="-535.06805"><tspan
         x="226.98454"
         y="-535.06805"
         id="tspan50751"
         style="stroke-width:0.41275">S</tspan></text><text
       transform="matrix(0,1,1,0,0,0)"
       style="font-variant:normal;font-size:9.86898px;font-family:'Nimbus Roman';-inkscape-font-specification:NimbusRomNo9L-Regu;writing-mode:lr-tb;fill:#262626;fill-opacity:1;fill-rule:nonzero;stroke:none;stroke-width:0.41275"
       id="text50769"
       x="611.79614"
       y="57.068016"><tspan
         x="611.79614 618.92157 623.30341 626.04694 633.88293 637.16931 641.55115 644.29468 652.13068 655.41705 664.19055 669.12506 674.05951 677.89856"
         y="57.068016"
         sodipodi:role="line"
         id="tspan50767"
         style="stroke-width:0.41275">Datarate[Mbps]</tspan></text><path
       d="m 191.18893,561.67458 h 88.76044 v 34.14559 h -88.76044 z"
       style="fill:#ffffff;fill-opacity:1;fill-rule:nonzero;stroke:#262626;stroke-width:0.126524;stroke-linecap:butt;stroke-linejoin:miter;stroke-miterlimit:10;stroke-dasharray:none;stroke-opacity:1"
       id="path50779" /><path
       d="m 192.69004,589.70705 h 2.70006 2.70006"
       style="fill:none;stroke:#0000ff;stroke-width:1.10711;stroke-linecap:butt;stroke-linejoin:miter;stroke-miterlimit:10;stroke-dasharray:none;stroke-opacity:1"
       id="path50789" /><path
       d="m 197.92064,589.70705 c 0,1.39759 -1.13294,2.53054 -2.53054,2.53054 -1.3976,0 -2.53055,-1.13295 -2.53055,-2.53054 0,-1.39759 1.13295,-2.53054 2.53055,-2.53054 1.3976,0 2.53054,1.13295 2.53054,2.53054 z"
       style="fill:none;stroke:#0000ff;stroke-width:1.10711;stroke-linecap:butt;stroke-linejoin:miter;stroke-miterlimit:10;stroke-dasharray:none;stroke-opacity:1"
       id="path50793" /><text
       transform="scale(1,-1)"
       style="font-variant:normal;font-weight:normal;font-size:10.2309px;font-family:CMMI12;-inkscape-font-specification:CMMI12;writing-mode:lr-tb;fill:#000000;fill-opacity:1;fill-rule:nonzero;stroke:none;stroke-width:0.41275"
       id="text50809"
       x="199.46613"
       y="-585.66626"><tspan
         x="199.46613"
         y="-585.66626"
         id="tspan50807"
         style="stroke-width:0.41275">λ</tspan></text><text
       transform="scale(1,-1)"
       style="font-variant:normal;font-size:6.90828px;font-family:'Nimbus Roman';-inkscape-font-specification:NimbusRomNo9L-Regu;writing-mode:lr-tb;fill:#000000;fill-opacity:1;fill-rule:nonzero;stroke:none;stroke-width:0.41275"
       id="text50813"
       x="205.30942"
       y="-584.13165"><tspan
         x="205.30942"
         y="-584.13165"
         id="tspan50811"
         style="stroke-width:0.41275">T</tspan></text><text
       transform="scale(1,-1)"
       style="font-variant:normal;font-size:9.86898px;font-family:'Nimbus Roman';-inkscape-font-specification:NimbusRomNo9L-Regu;writing-mode:lr-tb;fill:#000000;fill-opacity:1;fill-rule:nonzero;stroke:none;stroke-width:0.41275"
       id="text50817"
       x="209.73618"
       y="-585.66626"><tspan
         x="209.73618 215.30228 220.23676"
         y="-585.66626"
         sodipodi:role="line"
         id="tspan50815"
         style="stroke-width:0.41275">=10</tspan></text><text
       transform="scale(1,-1)"
       style="font-variant:normal;font-size:6.90828px;font-family:'Nimbus Roman';-inkscape-font-specification:NimbusRomNo9L-Regu;writing-mode:lr-tb;fill:#000000;fill-opacity:1;fill-rule:nonzero;stroke:none;stroke-width:0.41275"
       id="text50821"
       x="225.17094"
       y="-589.65338"><tspan
         x="225.17094 227.47141"
         y="-589.65338"
         sodipodi:role="line"
         id="tspan50819"
         style="stroke-width:0.41275">-9</tspan></text><text
       transform="scale(1,-1)"
       style="font-variant:normal;font-size:9.86898px;font-family:'Nimbus Roman';-inkscape-font-specification:NimbusRomNo9L-Regu;writing-mode:lr-tb;fill:#000000;fill-opacity:1;fill-rule:nonzero;stroke:none;stroke-width:0.41275"
       id="text50825"
       x="234.58537"
       y="-585.66626"><tspan
         x="234.58537 241.16798 246.65512 249.3987"
         y="-585.66626"
         sodipodi:role="line"
         id="tspan50823"
         style="stroke-width:0.41275">BS/m</tspan></text><text
       transform="scale(1,-1)"
       style="font-variant:normal;font-size:6.90828px;font-family:'Nimbus Roman';-inkscape-font-specification:NimbusRomNo9L-Regu;writing-mode:lr-tb;fill:#000000;fill-opacity:1;fill-rule:nonzero;stroke:none;stroke-width:0.41275"
       id="text50829"
       x="257.07654"
       y="-589.65338"><tspan
         x="257.07654"
         y="-589.65338"
         id="tspan50827"
         style="stroke-width:0.41275">2</tspan></text><path
       d="m 192.69004,578.74695 h 2.70006 2.70006"
       style="fill:none;stroke:#ff0000;stroke-width:1.10711;stroke-linecap:butt;stroke-linejoin:miter;stroke-miterlimit:10;stroke-dasharray:none;stroke-opacity:1"
       id="path50841" /><path
       d="m 195.3901,576.21641 v 5.06108 m 2.19152,-1.26527 -4.38305,-2.53054 m 4.38305,0 -4.38305,2.53054"
       style="fill:none;stroke:#ff0000;stroke-width:1.10711;stroke-linecap:butt;stroke-linejoin:miter;stroke-miterlimit:10;stroke-dasharray:none;stroke-opacity:1"
       id="path50845" /><text
       transform="scale(1,-1)"
       style="font-variant:normal;font-weight:normal;font-size:10.2309px;font-family:CMMI12;-inkscape-font-specification:CMMI12;writing-mode:lr-tb;fill:#000000;fill-opacity:1;fill-rule:nonzero;stroke:none;stroke-width:0.41275"
       id="text50861"
       x="199.46613"
       y="-574.70642"><tspan
         x="199.46613"
         y="-574.70642"
         id="tspan50859"
         style="stroke-width:0.41275">λ</tspan></text><text
       transform="scale(1,-1)"
       style="font-variant:normal;font-size:6.90828px;font-family:'Nimbus Roman';-inkscape-font-specification:NimbusRomNo9L-Regu;writing-mode:lr-tb;fill:#000000;fill-opacity:1;fill-rule:nonzero;stroke:none;stroke-width:0.41275"
       id="text50865"
       x="205.30942"
       y="-573.17181"><tspan
         x="205.30942"
         y="-573.17181"
         id="tspan50863"
         style="stroke-width:0.41275">T</tspan></text><text
       transform="scale(1,-1)"
       style="font-variant:normal;font-size:9.86898px;font-family:'Nimbus Roman';-inkscape-font-specification:NimbusRomNo9L-Regu;writing-mode:lr-tb;fill:#000000;fill-opacity:1;fill-rule:nonzero;stroke:none;stroke-width:0.41275"
       id="text50869"
       x="209.73618"
       y="-574.70642"><tspan
         x="209.73618 215.30228"
         y="-574.70642"
         sodipodi:role="line"
         id="tspan50867"
         style="stroke-width:0.41275">=5</tspan></text><text
       transform="scale(1,-1)"
       style="font-variant:normal;font-weight:normal;font-size:10.2309px;font-family:CMSY10;-inkscape-font-specification:CMSY10;writing-mode:lr-tb;fill:#000000;fill-opacity:1;fill-rule:nonzero;stroke:none;stroke-width:0.41275"
       id="text50873"
       x="222.50995"
       y="-574.70642"><tspan
         x="222.50995"
         y="-574.70642"
         id="tspan50871"
         style="stroke-width:0.41275">×</tspan></text><text
       transform="scale(1,-1)"
       style="font-variant:normal;font-size:9.86898px;font-family:'Nimbus Roman';-inkscape-font-specification:NimbusRomNo9L-Regu;writing-mode:lr-tb;fill:#000000;fill-opacity:1;fill-rule:nonzero;stroke:none;stroke-width:0.41275"
       id="text50877"
       x="232.74078"
       y="-574.70642"><tspan
         x="232.74078 237.67528"
         y="-574.70642"
         sodipodi:role="line"
         id="tspan50875"
         style="stroke-width:0.41275">10</tspan></text><text
       transform="scale(1,-1)"
       style="font-variant:normal;font-size:6.90828px;font-family:'Nimbus Roman';-inkscape-font-specification:NimbusRomNo9L-Regu;writing-mode:lr-tb;fill:#000000;fill-opacity:1;fill-rule:nonzero;stroke:none;stroke-width:0.41275"
       id="text50881"
       x="242.61005"
       y="-578.69318"><tspan
         x="242.61005 244.91051"
         y="-578.69318"
         sodipodi:role="line"
         id="tspan50879"
         style="stroke-width:0.41275">-9</tspan></text><text
       transform="scale(1,-1)"
       style="font-variant:normal;font-size:9.86898px;font-family:'Nimbus Roman';-inkscape-font-specification:NimbusRomNo9L-Regu;writing-mode:lr-tb;fill:#000000;fill-opacity:1;fill-rule:nonzero;stroke:none;stroke-width:0.41275"
       id="text50885"
       x="252.02448"
       y="-574.70642"><tspan
         x="252.02448 258.60709 264.09424 266.8378"
         y="-574.70642"
         sodipodi:role="line"
         id="tspan50883"
         style="stroke-width:0.41275">BS/m</tspan></text><text
       transform="scale(1,-1)"
       style="font-variant:normal;font-size:6.90828px;font-family:'Nimbus Roman';-inkscape-font-specification:NimbusRomNo9L-Regu;writing-mode:lr-tb;fill:#000000;fill-opacity:1;fill-rule:nonzero;stroke:none;stroke-width:0.41275"
       id="text50889"
       x="274.51562"
       y="-578.69318"><tspan
         x="274.51562"
         y="-578.69318"
         id="tspan50887"
         style="stroke-width:0.41275">2</tspan></text><path
       d="m 192.69004,567.78717 h 2.70006 2.70006"
       style="fill:none;stroke:#77ac30;stroke-width:1.10711;stroke-linecap:butt;stroke-linejoin:miter;stroke-miterlimit:10;stroke-dasharray:none;stroke-opacity:1"
       id="path50901" /><path
       d="m 195.3901,570.31771 2.19152,-3.79581 h -4.38305 z"
       style="fill:none;stroke:#77ac30;stroke-width:1.10711;stroke-linecap:butt;stroke-linejoin:miter;stroke-miterlimit:10;stroke-dasharray:none;stroke-opacity:1"
       id="path50905" /><text
       transform="scale(1,-1)"
       style="font-variant:normal;font-weight:normal;font-size:10.2309px;font-family:CMMI12;-inkscape-font-specification:CMMI12;writing-mode:lr-tb;fill:#000000;fill-opacity:1;fill-rule:nonzero;stroke:none;stroke-width:0.41275"
       id="text50921"
       x="199.46613"
       y="-563.74634"><tspan
         x="199.46613"
         y="-563.74634"
         id="tspan50919"
         style="stroke-width:0.41275">λ</tspan></text><text
       transform="scale(1,-1)"
       style="font-variant:normal;font-size:6.90828px;font-family:'Nimbus Roman';-inkscape-font-specification:NimbusRomNo9L-Regu;writing-mode:lr-tb;fill:#000000;fill-opacity:1;fill-rule:nonzero;stroke:none;stroke-width:0.41275"
       id="text50925"
       x="205.30942"
       y="-562.21173"><tspan
         x="205.30942"
         y="-562.21173"
         id="tspan50923"
         style="stroke-width:0.41275">T</tspan></text><text
       transform="scale(1,-1)"
       style="font-variant:normal;font-size:9.86898px;font-family:'Nimbus Roman';-inkscape-font-specification:NimbusRomNo9L-Regu;writing-mode:lr-tb;fill:#000000;fill-opacity:1;fill-rule:nonzero;stroke:none;stroke-width:0.41275"
       id="text50929"
       x="209.73618"
       y="-563.74634"><tspan
         x="209.73618 215.30228 220.23676"
         y="-563.74634"
         sodipodi:role="line"
         id="tspan50927"
         style="stroke-width:0.41275">=10</tspan></text><text
       transform="scale(1,-1)"
       style="font-variant:normal;font-size:6.90828px;font-family:'Nimbus Roman';-inkscape-font-specification:NimbusRomNo9L-Regu;writing-mode:lr-tb;fill:#000000;fill-opacity:1;fill-rule:nonzero;stroke:none;stroke-width:0.41275"
       id="text50933"
       x="225.17094"
       y="-567.73352"><tspan
         x="225.17094 227.47141"
         y="-567.73352"
         sodipodi:role="line"
         id="tspan50931"
         style="stroke-width:0.41275">-8</tspan></text><text
       transform="scale(1,-1)"
       style="font-variant:normal;font-size:9.86898px;font-family:'Nimbus Roman';-inkscape-font-specification:NimbusRomNo9L-Regu;writing-mode:lr-tb;fill:#000000;fill-opacity:1;fill-rule:nonzero;stroke:none;stroke-width:0.41275"
       id="text50937"
       x="234.58537"
       y="-563.74634"><tspan
         x="234.58537 241.16798 246.65512 249.3987"
         y="-563.74634"
         sodipodi:role="line"
         id="tspan50935"
         style="stroke-width:0.41275">BS/m</tspan></text><text
       transform="scale(1,-1)"
       style="font-variant:normal;font-size:6.90828px;font-family:'Nimbus Roman';-inkscape-font-specification:NimbusRomNo9L-Regu;writing-mode:lr-tb;fill:#000000;fill-opacity:1;fill-rule:nonzero;stroke:none;stroke-width:0.41275"
       id="text50941"
       x="257.07654"
       y="-567.73352"><tspan
         x="257.07654"
         y="-567.73352"
         id="tspan50939"
         style="stroke-width:0.41275">2</tspan></text><text
       xml:space="preserve"
       transform="matrix(0.75000002,0,0,-0.75000002,0,792.00002)"
       id="text59371"
       style="font-style:normal;font-weight:normal;font-size:40px;line-height:1.25;font-family:sans-serif;white-space:pre;shape-inside:url(#rect59373);fill:#000000;fill-opacity:1;stroke:none" /></g></svg>
